<?xml version="1.0" encoding="UTF-8"?>
<svg height="16px" viewBox="0 0 16 16" width="16px" xmlns="http://www.w3.org/2000/svg">
    <path d="M 4.4 1.2 C 4.9 1.2 5.3 1.6 5.3 2.1 L 5.3 3.9 C 5.3 4.4 4.9 4.8 4.4 4.8 C 3.9 4.8 3.5 4.4 3.5 3.9 L 3.5 2.1 C 3.5 1.6 3.9 1.2 4.4 1.2 Z M 8.1 1.2 C 8.6 1.2 9 1.6 9 2.1 L 9 3.9 C 9 4.4 8.6 4.8 8.1 4.8 C 7.6 4.8 7.2 4.4 7.2 3.9 L 7.2 2.1 C 7.2 1.6 7.6 1.2 8.1 1.2 Z M 1.5 6 L 11 6 L 11 10.5 C 11 12.4 9.4 14 7.5 14 L 5 14 C 3.1 14 1.5 12.4 1.5 10.5 Z M 12 7.2 L 12.8 7.2 C 14 7.2 15 8.2 15 9.4 C 15 10.6 14 11.6 12.8 11.6 L 12 11.6 L 12 9.8 L 12.8 9.8 C 13 9.8 13.2 9.6 13.2 9.4 C 13.2 9.2 13 9 12.8 9 L 12 9 Z M 12 7.2" fill="#2e3436"/>
</svg>
